HIERARCHY
ROOT Hips
{
  OFFSET 5.84602e-005 68.8428 3.50346
  CHANNELS 6 Xposition Yposition Zposition Zrotation Xrotation Yrotation
  JOINT Spine
  {
    OFFSET 0 8.597 -4.6522
    CHANNELS 3 Zrotation Xrotation Yrotation
    JOINT Spine1
    {
      OFFSET 0 7.8454 0.4098
      CHANNELS 3 Zrotation Xrotation Yrotation
      JOINT Spine2
      {
        OFFSET 0 9.7078 -2.1609
        CHANNELS 3 Zrotation Xrotation Yrotation
        JOINT Neck
        {
          OFFSET 0 21.8761 -0.4549
          CHANNELS 3 Zrotation Xrotation Yrotation
          JOINT Head
          {
            OFFSET 0 12.3537 3.3602
            CHANNELS 3 Zrotation Xrotation Yrotation
            End Site
            {
              OFFSET 0.0001 18.9506 0.5657
            }
          }
        }
        JOINT LeftShoulder
        {
          OFFSET 2.2086 21.1115 7.2329
          CHANNELS 3 Zrotation Xrotation Yrotation
          JOINT LeftArm
          {
            OFFSET 13.1193 3.0282 -4.8998
            CHANNELS 3 Zrotation Xrotation Yrotation
            JOINT LeftForeArm
            {
              OFFSET 27.4081 -0.0973053 -0.2375
              CHANNELS 3 Zrotation Xrotation Yrotation
              JOINT LeftHand
              {
                OFFSET 22.8641 0.0662994 -0.1369
                CHANNELS 3 Zrotation Xrotation Yrotation
                JOINT LeftHandIndex1
                {
                  OFFSET 8.8614 0.775009 2.4612
                  CHANNELS 3 Zrotation Xrotation Yrotation
                  JOINT LeftHandIndex2
                  {
                    OFFSET 3.3146 -0.808304 0.5841
                    CHANNELS 3 Zrotation Xrotation Yrotation
                    JOINT LeftHandIndex3
                    {
                      OFFSET 2.2628 -0.552002 0.3989
                      CHANNELS 3 Zrotation Xrotation Yrotation
                      End Site
                      {
                        OFFSET 1.6102 -0.4807 0.2612
                      }
                    }
                  }
                }
                JOINT LeftHandMiddle1
                {
                  OFFSET 8.9937 0.895004 0.2143
                  CHANNELS 3 Zrotation Xrotation Yrotation
                  JOINT LeftHandMiddle2
                  {
                    OFFSET 4.0984 0.0113983 -0.0242
                    CHANNELS 3 Zrotation Xrotation Yrotation
                    JOINT LeftHandMiddle3
                    {
                      OFFSET 2.2716 0.00689697 -0.0138001
                      CHANNELS 3 Zrotation Xrotation Yrotation
                      End Site
                      {
                        OFFSET 2.0404 -0.1441 0.0027
                      }
                    }
                  }
                }
                JOINT LeftHandRing1
                {
                  OFFSET 8.5234 0.597198 -2.0164
                  CHANNELS 3 Zrotation Xrotation Yrotation
                  JOINT LeftHandRing2
                  {
                    OFFSET 3.7188 -0.188293 -0.2328
                    CHANNELS 3 Zrotation Xrotation Yrotation
                    JOINT LeftHandRing3
                    {
                      OFFSET 2.1191 -0.106598 -0.1332
                      CHANNELS 3 Zrotation Xrotation Yrotation
                      End Site
                      {
                        OFFSET 1.8737 -0.2304 -0.0886
                      }
                    }
                  }
                }
                JOINT LeftHandPinky1
                {
                  OFFSET 7.9094 -0.601089 -3.4825
                  CHANNELS 3 Zrotation Xrotation Yrotation
                  JOINT LeftHandPinky2
                  {
                    OFFSET 2.2874 -0.477005 -0.6314
                    CHANNELS 3 Zrotation Xrotation Yrotation
                    JOINT LeftHandPinky3
                    {
                      OFFSET 1.6774 -0.349396 -0.4633
                      CHANNELS 3 Zrotation Xrotation Yrotation
                      End Site
                      {
                        OFFSET 1.4888 -0.4091 -0.3416
                      }
                    }
                  }
                }
                JOINT LeftHandThumb1
                {
                  OFFSET 1.833 -1.3875 1.3896
                  CHANNELS 3 Zrotation Xrotation Yrotation
                  JOINT LeftHandThumb2
                  {
                    OFFSET 3.4129 -1.121 2.5732
                    CHANNELS 3 Zrotation Xrotation Yrotation
                    JOINT LeftHandThumb3
                    {
                      OFFSET 2.2474 -0.804199 1.6192
                      CHANNELS 3 Zrotation Xrotation Yrotation
                      End Site
                      {
                        OFFSET 1.6527 -0.5689 1.1317
                      }
                    }
                  }
                }
              }
            }
          }
        }
        JOINT RightShoulder
        {
          OFFSET -2.2086 21.1115 7.2329
          CHANNELS 3 Zrotation Xrotation Yrotation
          JOINT RightArm
          {
            OFFSET -13.1216 3.0287 -4.9007
            CHANNELS 3 Zrotation Xrotation Yrotation
            JOINT RightForeArm
            {
              OFFSET -27.4081 -0.0973053 -0.2375
              CHANNELS 3 Zrotation Xrotation Yrotation
              JOINT RightHand
              {
                OFFSET -22.8641 0.0664063 -0.1369
                CHANNELS 3 Zrotation Xrotation Yrotation
                JOINT RightHandIndex1
                {
                  OFFSET -8.8614 0.774994 2.4612
                  CHANNELS 3 Zrotation Xrotation Yrotation
                  JOINT RightHandIndex2
                  {
                    OFFSET -3.3146 -0.808304 0.5841
                    CHANNELS 3 Zrotation Xrotation Yrotation
                    JOINT RightHandIndex3
                    {
                      OFFSET -2.2628 -0.552002 0.3989
                      CHANNELS 3 Zrotation Xrotation Yrotation
                      End Site
                      {
                        OFFSET -1.6102 -0.4807 0.2612
                      }
                    }
                  }
                }
                JOINT RightHandMiddle1
                {
                  OFFSET -8.9937 0.894989 0.2143
                  CHANNELS 3 Zrotation Xrotation Yrotation
                  JOINT RightHandMiddle2
                  {
                    OFFSET -4.0984 0.0113983 -0.0242
                    CHANNELS 3 Zrotation Xrotation Yrotation
                    JOINT RightHandMiddle3
                    {
                      OFFSET -2.2716 0.00691223 -0.0138001
                      CHANNELS 3 Zrotation Xrotation Yrotation
                      End Site
                      {
                        OFFSET -2.0404 -0.1441 0.0027
                      }
                    }
                  }
                }
                JOINT RightHandRing1
                {
                  OFFSET -8.5234 0.597198 -2.0164
                  CHANNELS 3 Zrotation Xrotation Yrotation
                  JOINT RightHandRing2
                  {
                    OFFSET -3.7188 -0.188309 -0.2328
                    CHANNELS 3 Zrotation Xrotation Yrotation
                    JOINT RightHandRing3
                    {
                      OFFSET -2.1191 -0.106598 -0.1332
                      CHANNELS 3 Zrotation Xrotation Yrotation
                      End Site
                      {
                        OFFSET -1.8737 -0.2304 -0.0886
                      }
                    }
                  }
                }
                JOINT RightHandPinky1
                {
                  OFFSET -7.9094 -0.601105 -3.4825
                  CHANNELS 3 Zrotation Xrotation Yrotation
                  JOINT RightHandPinky2
                  {
                    OFFSET -2.2874 -0.477005 -0.6314
                    CHANNELS 3 Zrotation Xrotation Yrotation
                    JOINT RightHandPinky3
                    {
                      OFFSET -1.6774 -0.349396 -0.4633
                      CHANNELS 3 Zrotation Xrotation Yrotation
                      End Site
                      {
                        OFFSET -1.4888 -0.4091 -0.3416
                      }
                    }
                  }
                }
                JOINT RightHandThumb1
                {
                  OFFSET -1.833 -1.38751 1.3896
                  CHANNELS 3 Zrotation Xrotation Yrotation
                  JOINT RightHandThumb2
                  {
                    OFFSET -3.41299 -1.12099 2.5732
                    CHANNELS 3 Zrotation Xrotation Yrotation
                    JOINT RightHandThumb3
                    {
                      OFFSET -2.24741 -0.804108 1.6192
                      CHANNELS 3 Zrotation Xrotation Yrotation
                      End Site
                      {
                        OFFSET -1.6527 -0.5689 1.1317
                      }
                    }
                  }
                }
              }
            }
          }
        }
      }
    }
  }
  JOINT RightUpLeg
  {
    OFFSET -9.1966 3.8861 -0.7581
    CHANNELS 3 Zrotation Xrotation Yrotation
    JOINT RightLeg
    {
      OFFSET -0.7359 -41.0265 0
      CHANNELS 3 Zrotation Xrotation Yrotation
      JOINT RightFoot
      {
        OFFSET 0 -40.2855 0
        CHANNELS 3 Zrotation Xrotation Yrotation
        JOINT RightToeBase
        {
          OFFSET 0 -5.6122 11.7359
          CHANNELS 3 Zrotation Xrotation Yrotation
          End Site
          {
            OFFSET 0 0 7.8731
          }
        }
      }
    }
  }
  JOINT LeftUpLeg
  {
    OFFSET 9.1965 3.8864 -0.7581
    CHANNELS 3 Zrotation Xrotation Yrotation
    JOINT LeftLeg
    {
      OFFSET 0.7359 -41.0268 0
      CHANNELS 3 Zrotation Xrotation Yrotation
      JOINT LeftFoot
      {
        OFFSET 0 -40.2855 0
        CHANNELS 3 Zrotation Xrotation Yrotation
        JOINT LeftToeBase
        {
          OFFSET 0 -5.6122 11.7359
          CHANNELS 3 Zrotation Xrotation Yrotation
          End Site
          {
            OFFSET 0 0 7.8731
          }
        }
      }
    }
  }
}
MOTION
Frames:	4
Frame Time:	0.0333333
-0.0295939 74.2683 -32.4886 -0 -69.0033 -0 -0.380884 16.0044 -0.00931178 -0.80962 32.0084 0.103973 -0.809619 32.0084 0.103973 -1.88302e-006 -10.3228 4.16383e-007 6.52525e-008 -9.3836 -4.53712e-008 -9.77821 0.025652 1.36748 4.62044 47.3981 -5.91834 4.45262e-006 1.02335e-005 -8.00265 -6.18991 4.5559 0.859879 -6.17543e-007 2.11716e-006 7.92499e-008 2.932e-006 -1.69704e-006 -6.17692e-007 -1.15599e-006 2.20838e-006 -2.2352e-006 -6.17543e-007 2.11716e-006 7.92499e-008 -0.0146109 -9.02323e-005 -1.09227e-008 -1.15471e-006 2.20868e-006 -2.23492e-006 -6.17543e-007 2.11716e-006 7.92499e-008 -0.0187666 -0.0011823 5.72643e-005 -5.38397e-007 9.16091e-008 -2.31443e-006 -6.17543e-007 2.11716e-006 7.92499e-008 -0.0122256 -0.00324087 0.000672818 -5.38462e-007 9.14874e-008 -2.31443e-006 -6.17543e-007 2.11716e-006 7.92499e-008 2.932e-006 -1.69704e-006 -6.17692e-007 -1.15599e-006 2.20838e-006 -2.2352e-006 9.96126 0.0229125 -1.22353 -4.62308 47.398 5.91568 -2.16724e-006 1.23566e-006 7.99913 5.1867 4.57273 -1.04602 -1.34315e-006 -3.43072e-006 2.27533e-007 -1.43713e-006 1.22757e-007 -8.85813e-007 -1.34315e-006 -3.43072e-006 2.27533e-007 -1.34315e-006 -3.43072e-006 2.27533e-007 0.0149248 -0.000105953 9.09652e-007 -1.34391e-006 -3.43069e-006 2.27981e-007 -1.34315e-006 -3.43072e-006 2.27533e-007 0.0190386 -0.00120617 -5.84447e-005 -1.34412e-006 -3.43062e-006 2.2812e-007 -1.34315e-006 -3.43072e-006 2.27533e-007 0.0123044 -0.00326769 -0.000675617 -1.34375e-006 -3.43054e-006 2.27974e-007 -1.34315e-006 -3.43072e-006 2.27533e-007 -1.43713e-006 1.22757e-007 -8.85813e-007 -1.34315e-006 -3.43072e-006 2.27533e-007 -127.643 -53.4758 -135.456 -120.367 72.698 117.612 -3.22397 27.5526 -5.9921 -2.88184e-006 -9.54713e-007 1.42732e-006 123.19 -52.5405 130.342 103.002 75.115 -101.139 3.7144 29.1895 3.42498 1.39022e-006 -3.3286e-007 -4.33073e-006 
-0.0275593 74.2689 -32.4891 -0 -69.0033 -0 -0.380207 16.071 -0.0108638 -0.808135 32.1416 0.10111 -0.808135 32.1416 0.10111 5.0883e-007 -9.64218 1.04781e-006 3.22432e-007 -8.76478 -1.37365e-007 -9.65122 0.0113393 1.26949 4.62043 47.3981 -5.91834 -7.07529e-007 2.56945e-008 -8.00265 -6.24565 4.23015 0.800474 1.04362e-015 -6.36111e-015 -5.06901e-015 4.44025e-007 1.27701e-007 -7.13257e-007 8.8805e-007 2.55402e-007 -1.42651e-006 1.04362e-015 -6.36111e-015 -5.06901e-015 -0.0146039 -9.19878e-005 -3.2508e-006 8.8807e-007 2.55584e-007 -1.42648e-006 1.04362e-015 -6.36111e-015 -5.06901e-015 -0.0187741 -0.00117238 5.95428e-005 8.88063e-007 2.55637e-007 -1.42648e-006 1.04362e-015 -6.36111e-015 -5.06901e-015 -0.0122713 -0.00324997 0.000675445 1.50406e-006 -1.86222e-006 -1.5032e-006 1.04362e-015 -6.36111e-015 -5.06901e-015 4.44025e-007 1.27701e-007 -7.13257e-007 8.8805e-007 2.55402e-007 -1.42651e-006 9.82096 0.00875798 -1.13605 -4.62308 47.398 5.91568 7.43965e-007 3.79564e-006 7.99914 5.31349 4.24511 -0.975951 5.96354e-016 -3.18055e-015 1.73937e-015 -1.59028e-015 -6.36111e-015 1.93815e-015 -4.96962e-016 0 2.03754e-015 5.96354e-016 -3.18055e-015 1.73937e-015 0.0149496 -9.3194e-005 -2.91507e-007 -3.97569e-015 -6.36111e-015 1.68967e-015 5.96354e-016 -3.18055e-015 1.73937e-015 0.0190259 -0.00119589 -6.00666e-005 -3.27529e-007 -1.34804e-006 -2.73772e-007 5.96354e-016 -3.18055e-015 1.73937e-015 0.0122244 -0.00323612 -0.000674421 -4.08286e-031 6.36111e-015 3.67752e-015 5.96354e-016 -3.18055e-015 1.73937e-015 -1.59028e-015 -6.36111e-015 1.93815e-015 -4.96962e-016 0 2.03754e-015 -127.16 -53.2694 -134.933 -119.325 72.909 116.629 -3.34323 27.7611 -5.61106 -4.3362e-006 -1.26888e-006 5.73669e-006 123.052 -52.3875 130.211 103.036 75.113 -101.168 3.80806 29.2782 3.22085 -5.76025e-006 2.07035e-006 -6.61224e-007 
-0.0255104 74.2694 -32.4897 -0 -69.0033 -0 -0.379507 16.1376 -0.0124156 -0.806596 32.2749 0.0982351 -0.806597 32.2749 0.0982357 -7.59588e-007 -8.96141 -6.65705e-007 -9.86214e-008 -8.14576 -7.64665e-008 -9.52426 -0.00319074 1.17153 4.62043 47.3981 -5.91834 -3.30511e-006 4.40217e-006 -8.00265 -6.30171 3.90442 0.74076 1.87063e-006 2.9123e-007 1.74808e-007 -9.44323e-008 2.19037e-007 -3.02796e-006 4.44048e-007 1.27567e-007 -7.13289e-007 1.87063e-006 2.9123e-007 1.74808e-007 -0.0146772 -9.62592e-005 -2.12735e-006 4.44058e-007 1.27658e-007 -7.13273e-007 1.87063e-006 2.9123e-007 1.74808e-007 -0.0187051 -0.00116895 5.80629e-005 4.44055e-007 1.27684e-007 -7.13272e-007 1.87063e-006 2.9123e-007 1.74808e-007 -0.0123838 -0.00327915 0.000681068 4.44038e-007 1.27643e-007 -7.13288e-007 1.87063e-006 2.9123e-007 1.74808e-007 -9.44323e-008 2.19037e-007 -3.02796e-006 4.44048e-007 1.27567e-007 -7.13289e-007 9.68069 -0.00560834 -1.04861 -4.62309 47.398 5.91568 3.25121e-007 1.90163e-005 7.99914 5.44065 3.9176 -0.905182 4.43002e-007 -1.13295e-007 -7.18457e-007 -1.07907e-007 -2.18851e-007 -3.04138e-006 3.97569e-016 -3.18055e-015 -3.97569e-015 4.43002e-007 -1.13295e-007 -7.18457e-007 0.0150123 -8.76023e-005 2.31462e-007 7.95139e-016 6.36111e-015 3.18055e-015 4.43002e-007 -1.13295e-007 -7.18457e-007 0.0189731 -0.00118557 -6.36093e-005 -1.39149e-015 -3.18055e-015 1.88845e-015 4.43002e-007 -1.13295e-007 -7.18457e-007 0.0122921 -0.00325167 -0.000679416 -1.98785e-016 -6.36111e-015 -1.98785e-016 4.43002e-007 -1.13295e-007 -7.18457e-007 -1.07907e-007 -2.18851e-007 -3.04138e-006 3.97569e-016 -3.18055e-015 -3.97569e-015 -126.683 -53.0604 -134.416 -118.259 73.1146 115.621 -3.46439 27.9689 -5.22873 -6.39094e-007 -2.16571e-007 1.50145e-006 122.915 -52.2343 130.082 103.07 75.111 -101.196 3.90216 29.3665 3.01635 -3.18055e-015 -3.18055e-015 3.18055e-015 
-0.0234493 74.27 -32.4902 -0 -69.0033 -0 -0.378782 16.2043 -0.0139674 -0.805002 32.4083 0.0953495 -0.805002 32.4083 0.0953501 3.40446e-006 -8.28051 1.64804e-007 1.95704e-007 -7.52658 2.19773e-007 -9.39731 -0.0179305 1.0736 4.62044 47.3981 -5.91834 1.26764e-006 4.08951e-007 -8.00265 -6.35809 3.57871 0.680759 3.08781e-007 -1.21546e-006 -2.30378e-006 1.06033e-006 -1.99068e-006 -7.84477e-007 4.44073e-007 1.27433e-007 -7.13319e-007 3.08781e-007 -1.21546e-006 -2.30378e-006 -0.0146148 -9.01918e-005 -2.61043e-006 1.29332e-006 -1.1795e-006 -7.02471e-007 3.08781e-007 -1.21546e-006 -2.30378e-006 -0.0187111 -0.00116936 5.97849e-005 4.44079e-007 1.2755e-007 -7.13303e-007 3.08781e-007 -1.21546e-006 -2.30378e-006 -0.0123164 -0.00326046 0.000674275 -4.04858e-007 1.43412e-006 -7.24062e-007 3.08781e-007 -1.21546e-006 -2.30378e-006 1.06033e-006 -1.99068e-006 -7.84477e-007 4.44073e-007 1.27433e-007 -7.13319e-007 9.54043 -0.0201863 -0.961201 -4.62309 47.398 5.91568 4.61732e-006 1.34776e-005 7.99914 5.56817 3.59023 -0.8337 4.43051e-007 -1.13675e-007 -7.18402e-007 -4.43051e-007 1.13675e-007 7.18402e-007 4.43051e-007 -1.13675e-007 -7.18402e-007 4.43051e-007 -1.13675e-007 -7.18402e-007 0.0149694 -9.33084e-005 -2.03466e-006 4.43059e-007 -1.13769e-007 -7.18388e-007 4.43051e-007 -1.13675e-007 -7.18402e-007 0.0190013 -0.00119956 -6.11782e-005 4.43054e-007 -1.13795e-007 -7.18388e-007 4.43051e-007 -1.13675e-007 -7.18402e-007 0.0122729 -0.00324953 -0.000678687 4.43038e-007 -1.13751e-007 -7.18403e-007 4.43051e-007 -1.13675e-007 -7.18402e-007 -4.43051e-007 1.13675e-007 7.18402e-007 4.43051e-007 -1.13675e-007 -7.18402e-007 -126.211 -52.849 -133.904 -117.167 73.3147 114.588 -3.58751 28.1761 -4.84509 7.94503e-031 9.54166e-015 -4.77083e-015 122.779 -52.0809 129.954 103.105 75.109 -101.225 3.99673 29.4545 2.81148 1.46111e-006 -6.3062e-007 2.86513e-006 
